<svg xmlns="http://www.w3.org/2000/svg" width="480" height="295" viewBox="0 0 480 295">
  <defs>
    <linearGradient id="bg" x1="0%" y1="0%" x2="100%" y2="100%">
      <stop offset="0%"   stop-color="#0d1117"/>
      <stop offset="100%" stop-color="#161b22"/>
    </linearGradient>
    <linearGradient id="title_grad" x1="0%" y1="0%" x2="100%" y2="0%">
      <stop offset="0%"   stop-color="#58a6ff"/>
      <stop offset="100%" stop-color="#bc8cff"/>
    </linearGradient>
    <style>
      @keyframes fadeIn {0%{opacity:0;transform:translateY(8px)}100%{opacity:1;transform:translateY(0)}}
      .card{animation:fadeIn .6s ease-out both}
      .row{animation:fadeIn .5s ease-out both}
    </style>
  </defs>

  <!-- Background -->
  <rect width="480" height="295" rx="12" fill="url(#bg)" class="card"/>
  <rect width="480" height="295" rx="12" fill="none"
        stroke="#21262d" stroke-width="1"/>

  <!-- Title -->
  <text x="24" y="44" font-size="16" font-weight="700"
        font-family="'Segoe UI',system-ui,sans-serif"
        fill="url(#title_grad)" class="card">Janmejoy Kar's GitHub Stats</text>

  <!-- Subtitle -->
  <text x="24" y="60" font-size="11"
        font-family="'Segoe UI',system-ui,sans-serif"
        fill="#8b949e" class="card">@janmejoykar1807 · 166 contributions this year</text>

  <!-- Divider -->
  <line x1="24" y1="68" x2="456" y2="68"
        stroke="#21262d" stroke-width="0.5"/>

  <!-- Stats rows -->
  
        <g transform="translate(24,72)">
          <circle cx="5" cy="5" r="4" fill="#58a6ff" opacity="0.2"/>
          <circle cx="5" cy="5" r="2" fill="#58a6ff"/>
          <text x="16" y="9" font-size="11" fill="#8b949e"
                font-family="'Segoe UI',system-ui,sans-serif">Total Commits</text>
          <text x="204" y="9" font-size="12" fill="#58a6ff" font-weight="600"
                font-family="'Segoe UI',system-ui,sans-serif"
                text-anchor="end">161</text>
        </g>
        <g transform="translate(248,72)">
          <circle cx="5" cy="5" r="4" fill="#bc8cff" opacity="0.2"/>
          <circle cx="5" cy="5" r="2" fill="#bc8cff"/>
          <text x="16" y="9" font-size="11" fill="#8b949e"
                font-family="'Segoe UI',system-ui,sans-serif">Pull Requests</text>
          <text x="204" y="9" font-size="12" fill="#bc8cff" font-weight="600"
                font-family="'Segoe UI',system-ui,sans-serif"
                text-anchor="end">0</text>
        </g>
        <g transform="translate(24,100)">
          <circle cx="5" cy="5" r="4" fill="#f78166" opacity="0.2"/>
          <circle cx="5" cy="5" r="2" fill="#f78166"/>
          <text x="16" y="9" font-size="11" fill="#8b949e"
                font-family="'Segoe UI',system-ui,sans-serif">Issues</text>
          <text x="204" y="9" font-size="12" fill="#f78166" font-weight="600"
                font-family="'Segoe UI',system-ui,sans-serif"
                text-anchor="end">0</text>
        </g>
        <g transform="translate(248,100)">
          <circle cx="5" cy="5" r="4" fill="#e3b341" opacity="0.2"/>
          <circle cx="5" cy="5" r="2" fill="#e3b341"/>
          <text x="16" y="9" font-size="11" fill="#8b949e"
                font-family="'Segoe UI',system-ui,sans-serif">Stars Earned</text>
          <text x="204" y="9" font-size="12" fill="#e3b341" font-weight="600"
                font-family="'Segoe UI',system-ui,sans-serif"
                text-anchor="end">11</text>
        </g>
        <g transform="translate(24,128)">
          <circle cx="5" cy="5" r="4" fill="#3fb950" opacity="0.2"/>
          <circle cx="5" cy="5" r="2" fill="#3fb950"/>
          <text x="16" y="9" font-size="11" fill="#8b949e"
                font-family="'Segoe UI',system-ui,sans-serif">Current Streak</text>
          <text x="204" y="9" font-size="12" fill="#3fb950" font-weight="600"
                font-family="'Segoe UI',system-ui,sans-serif"
                text-anchor="end">0 days</text>
        </g>
        <g transform="translate(248,128)">
          <circle cx="5" cy="5" r="4" fill="#3fb950" opacity="0.2"/>
          <circle cx="5" cy="5" r="2" fill="#3fb950"/>
          <text x="16" y="9" font-size="11" fill="#8b949e"
                font-family="'Segoe UI',system-ui,sans-serif">Longest Streak</text>
          <text x="204" y="9" font-size="12" fill="#3fb950" font-weight="600"
                font-family="'Segoe UI',system-ui,sans-serif"
                text-anchor="end">2 days</text>
        </g>
        <g transform="translate(24,156)">
          <circle cx="5" cy="5" r="4" fill="#58a6ff" opacity="0.2"/>
          <circle cx="5" cy="5" r="2" fill="#58a6ff"/>
          <text x="16" y="9" font-size="11" fill="#8b949e"
                font-family="'Segoe UI',system-ui,sans-serif">Total Repos</text>
          <text x="204" y="9" font-size="12" fill="#58a6ff" font-weight="600"
                font-family="'Segoe UI',system-ui,sans-serif"
                text-anchor="end">13</text>
        </g>
        <g transform="translate(248,156)">
          <circle cx="5" cy="5" r="4" fill="#8b949e" opacity="0.2"/>
          <circle cx="5" cy="5" r="2" fill="#8b949e"/>
          <text x="16" y="9" font-size="11" fill="#8b949e"
                font-family="'Segoe UI',system-ui,sans-serif">Followers</text>
          <text x="204" y="9" font-size="12" fill="#8b949e" font-weight="600"
                font-family="'Segoe UI',system-ui,sans-serif"
                text-anchor="end">4</text>
        </g>

  <!-- Contribution calendar label -->
  <text x="24" y="194" font-size="10"
        font-family="'Segoe UI',system-ui,sans-serif"
        fill="#8b949e">contribution activity · last 26 weeks</text>

  <!-- Contribution calendar -->
  <g transform="translate(24,200)">
    <g transform="translate(0,0)"><rect x="0" y="0" width="7" height="7" rx="1.5" fill="#161b22" opacity="0.9"><title>2025-10-27: 0 contributions</title></rect><rect x="0" y="9" width="7" height="7" rx="1.5" fill="#161b22" opacity="0.9"><title>2025-10-28: 0 contributions</title></rect><rect x="0" y="18" width="7" height="7" rx="1.5" fill="#161b22" opacity="0.9"><title>2025-10-29: 0 contributions</title></rect><rect x="0" y="27" width="7" height="7" rx="1.5" fill="#161b22" opacity="0.9"><title>2025-10-30: 0 contributions</title></rect><rect x="0" y="36" width="7" height="7" rx="1.5" fill="#161b22" opacity="0.9"><title>2025-10-31: 0 contributions</title></rect><rect x="0" y="45" width="7" height="7" rx="1.5" fill="#161b22" opacity="0.9"><title>2025-11-01: 0 contributions</title></rect><rect x="0" y="54" width="7" height="7" rx="1.5" fill="#161b22" opacity="0.9"><title>2025-11-02: 0 contributions</title></rect><rect x="9" y="0" width="7" height="7" rx="1.5" fill="#161b22" opacity="0.9"><title>2025-11-03: 0 contributions</title></rect><rect x="9" y="9" width="7" height="7" rx="1.5" fill="#161b22" opacity="0.9"><title>2025-11-04: 0 contributions</title></rect><rect x="9" y="18" width="7" height="7" rx="1.5" fill="#161b22" opacity="0.9"><title>2025-11-05: 0 contributions</title></rect><rect x="9" y="27" width="7" height="7" rx="1.5" fill="#161b22" opacity="0.9"><title>2025-11-06: 0 contributions</title></rect><rect x="9" y="36" width="7" height="7" rx="1.5" fill="#161b22" opacity="0.9"><title>2025-11-07: 0 contributions</title></rect><rect x="9" y="45" width="7" height="7" rx="1.5" fill="#161b22" opacity="0.9"><title>2025-11-08: 0 contributions</title></rect><rect x="9" y="54" width="7" height="7" rx="1.5" fill="#161b22" opacity="0.9"><title>2025-11-09: 0 contributions</title></rect><rect x="18" y="0" width="7" height="7" rx="1.5" fill="#161b22" opacity="0.9"><title>2025-11-10: 0 contributions</title></rect><rect x="18" y="9" width="7" height="7" rx="1.5" fill="#161b22" opacity="0.9"><title>2025-11-11: 0 contributions</title></rect><rect x="18" y="18" width="7" height="7" rx="1.5" fill="#161b22" opacity="0.9"><title>2025-11-12: 0 contributions</title></rect><rect x="18" y="27" width="7" height="7" rx="1.5" fill="#161b22" opacity="0.9"><title>2025-11-13: 0 contributions</title></rect><rect x="18" y="36" width="7" height="7" rx="1.5" fill="#161b22" opacity="0.9"><title>2025-11-14: 0 contributions</title></rect><rect x="18" y="45" width="7" height="7" rx="1.5" fill="#161b22" opacity="0.9"><title>2025-11-15: 0 contributions</title></rect><rect x="18" y="54" width="7" height="7" rx="1.5" fill="#161b22" opacity="0.9"><title>2025-11-16: 0 contributions</title></rect><rect x="27" y="0" width="7" height="7" rx="1.5" fill="#161b22" opacity="0.9"><title>2025-11-17: 0 contributions</title></rect><rect x="27" y="9" width="7" height="7" rx="1.5" fill="#161b22" opacity="0.9"><title>2025-11-18: 0 contributions</title></rect><rect x="27" y="18" width="7" height="7" rx="1.5" fill="#161b22" opacity="0.9"><title>2025-11-19: 0 contributions</title></rect><rect x="27" y="27" width="7" height="7" rx="1.5" fill="#161b22" opacity="0.9"><title>2025-11-20: 0 contributions</title></rect><rect x="27" y="36" width="7" height="7" rx="1.5" fill="#161b22" opacity="0.9"><title>2025-11-21: 0 contributions</title></rect><rect x="27" y="45" width="7" height="7" rx="1.5" fill="#161b22" opacity="0.9"><title>2025-11-22: 0 contributions</title></rect><rect x="27" y="54" width="7" height="7" rx="1.5" fill="#161b22" opacity="0.9"><title>2025-11-23: 0 contributions</title></rect><rect x="36" y="0" width="7" height="7" rx="1.5" fill="#161b22" opacity="0.9"><title>2025-11-24: 0 contributions</title></rect><rect x="36" y="9" width="7" height="7" rx="1.5" fill="#161b22" opacity="0.9"><title>2025-11-25: 0 contributions</title></rect><rect x="36" y="18" width="7" height="7" rx="1.5" fill="#161b22" opacity="0.9"><title>2025-11-26: 0 contributions</title></rect><rect x="36" y="27" width="7" height="7" rx="1.5" fill="#161b22" opacity="0.9"><title>2025-11-27: 0 contributions</title></rect><rect x="36" y="36" width="7" height="7" rx="1.5" fill="#161b22" opacity="0.9"><title>2025-11-28: 0 contributions</title></rect><rect x="36" y="45" width="7" height="7" rx="1.5" fill="#161b22" opacity="0.9"><title>2025-11-29: 0 contributions</title></rect><rect x="36" y="54" width="7" height="7" rx="1.5" fill="#161b22" opacity="0.9"><title>2025-11-30: 0 contributions</title></rect><rect x="45" y="0" width="7" height="7" rx="1.5" fill="#161b22" opacity="0.9"><title>2025-12-01: 0 contributions</title></rect><rect x="45" y="9" width="7" height="7" rx="1.5" fill="#161b22" opacity="0.9"><title>2025-12-02: 0 contributions</title></rect><rect x="45" y="18" width="7" height="7" rx="1.5" fill="#161b22" opacity="0.9"><title>2025-12-03: 0 contributions</title></rect><rect x="45" y="27" width="7" height="7" rx="1.5" fill="#161b22" opacity="0.9"><title>2025-12-04: 0 contributions</title></rect><rect x="45" y="36" width="7" height="7" rx="1.5" fill="#161b22" opacity="0.9"><title>2025-12-05: 0 contributions</title></rect><rect x="45" y="45" width="7" height="7" rx="1.5" fill="#161b22" opacity="0.9"><title>2025-12-06: 0 contributions</title></rect><rect x="45" y="54" width="7" height="7" rx="1.5" fill="#161b22" opacity="0.9"><title>2025-12-07: 0 contributions</title></rect><rect x="54" y="0" width="7" height="7" rx="1.5" fill="#161b22" opacity="0.9"><title>2025-12-08: 0 contributions</title></rect><rect x="54" y="9" width="7" height="7" rx="1.5" fill="#161b22" opacity="0.9"><title>2025-12-09: 0 contributions</title></rect><rect x="54" y="18" width="7" height="7" rx="1.5" fill="#161b22" opacity="0.9"><title>2025-12-10: 0 contributions</title></rect><rect x="54" y="27" width="7" height="7" rx="1.5" fill="#161b22" opacity="0.9"><title>2025-12-11: 0 contributions</title></rect><rect x="54" y="36" width="7" height="7" rx="1.5" fill="#161b22" opacity="0.9"><title>2025-12-12: 0 contributions</title></rect><rect x="54" y="45" width="7" height="7" rx="1.5" fill="#161b22" opacity="0.9"><title>2025-12-13: 0 contributions</title></rect><rect x="54" y="54" width="7" height="7" rx="1.5" fill="#161b22" opacity="0.9"><title>2025-12-14: 0 contributions</title></rect><rect x="63" y="0" width="7" height="7" rx="1.5" fill="#161b22" opacity="0.9"><title>2025-12-15: 0 contributions</title></rect><rect x="63" y="9" width="7" height="7" rx="1.5" fill="#161b22" opacity="0.9"><title>2025-12-16: 0 contributions</title></rect><rect x="63" y="18" width="7" height="7" rx="1.5" fill="#161b22" opacity="0.9"><title>2025-12-17: 0 contributions</title></rect><rect x="63" y="27" width="7" height="7" rx="1.5" fill="#161b22" opacity="0.9"><title>2025-12-18: 0 contributions</title></rect><rect x="63" y="36" width="7" height="7" rx="1.5" fill="#161b22" opacity="0.9"><title>2025-12-19: 0 contributions</title></rect><rect x="63" y="45" width="7" height="7" rx="1.5" fill="#161b22" opacity="0.9"><title>2025-12-20: 0 contributions</title></rect><rect x="63" y="54" width="7" height="7" rx="1.5" fill="#161b22" opacity="0.9"><title>2025-12-21: 0 contributions</title></rect><rect x="72" y="0" width="7" height="7" rx="1.5" fill="#161b22" opacity="0.9"><title>2025-12-22: 0 contributions</title></rect><rect x="72" y="9" width="7" height="7" rx="1.5" fill="#161b22" opacity="0.9"><title>2025-12-23: 0 contributions</title></rect><rect x="72" y="18" width="7" height="7" rx="1.5" fill="#161b22" opacity="0.9"><title>2025-12-24: 0 contributions</title></rect><rect x="72" y="27" width="7" height="7" rx="1.5" fill="#161b22" opacity="0.9"><title>2025-12-25: 0 contributions</title></rect><rect x="72" y="36" width="7" height="7" rx="1.5" fill="#161b22" opacity="0.9"><title>2025-12-26: 0 contributions</title></rect><rect x="72" y="45" width="7" height="7" rx="1.5" fill="#161b22" opacity="0.9"><title>2025-12-27: 0 contributions</title></rect><rect x="72" y="54" width="7" height="7" rx="1.5" fill="#161b22" opacity="0.9"><title>2025-12-28: 0 contributions</title></rect><rect x="81" y="0" width="7" height="7" rx="1.5" fill="#161b22" opacity="0.9"><title>2025-12-29: 0 contributions</title></rect><rect x="81" y="9" width="7" height="7" rx="1.5" fill="#161b22" opacity="0.9"><title>2025-12-30: 0 contributions</title></rect><rect x="81" y="18" width="7" height="7" rx="1.5" fill="#161b22" opacity="0.9"><title>2025-12-31: 0 contributions</title></rect><rect x="81" y="27" width="7" height="7" rx="1.5" fill="#161b22" opacity="0.9"><title>2026-01-01: 0 contributions</title></rect><rect x="81" y="36" width="7" height="7" rx="1.5" fill="#161b22" opacity="0.9"><title>2026-01-02: 0 contributions</title></rect><rect x="81" y="45" width="7" height="7" rx="1.5" fill="#161b22" opacity="0.9"><title>2026-01-03: 0 contributions</title></rect><rect x="81" y="54" width="7" height="7" rx="1.5" fill="#161b22" opacity="0.9"><title>2026-01-04: 0 contributions</title></rect><rect x="90" y="0" width="7" height="7" rx="1.5" fill="#161b22" opacity="0.9"><title>2026-01-05: 0 contributions</title></rect><rect x="90" y="9" width="7" height="7" rx="1.5" fill="#161b22" opacity="0.9"><title>2026-01-06: 0 contributions</title></rect><rect x="90" y="18" width="7" height="7" rx="1.5" fill="#161b22" opacity="0.9"><title>2026-01-07: 0 contributions</title></rect><rect x="90" y="27" width="7" height="7" rx="1.5" fill="#161b22" opacity="0.9"><title>2026-01-08: 0 contributions</title></rect><rect x="90" y="36" width="7" height="7" rx="1.5" fill="#161b22" opacity="0.9"><title>2026-01-09: 0 contributions</title></rect><rect x="90" y="45" width="7" height="7" rx="1.5" fill="#161b22" opacity="0.9"><title>2026-01-10: 0 contributions</title></rect><rect x="90" y="54" width="7" height="7" rx="1.5" fill="#161b22" opacity="0.9"><title>2026-01-11: 0 contributions</title></rect><rect x="99" y="0" width="7" height="7" rx="1.5" fill="#161b22" opacity="0.9"><title>2026-01-12: 0 contributions</title></rect><rect x="99" y="9" width="7" height="7" rx="1.5" fill="#161b22" opacity="0.9"><title>2026-01-13: 0 contributions</title></rect><rect x="99" y="18" width="7" height="7" rx="1.5" fill="#161b22" opacity="0.9"><title>2026-01-14: 0 contributions</title></rect><rect x="99" y="27" width="7" height="7" rx="1.5" fill="#161b22" opacity="0.9"><title>2026-01-15: 0 contributions</title></rect><rect x="99" y="36" width="7" height="7" rx="1.5" fill="#161b22" opacity="0.9"><title>2026-01-16: 0 contributions</title></rect><rect x="99" y="45" width="7" height="7" rx="1.5" fill="#161b22" opacity="0.9"><title>2026-01-17: 0 contributions</title></rect><rect x="99" y="54" width="7" height="7" rx="1.5" fill="#161b22" opacity="0.9"><title>2026-01-18: 0 contributions</title></rect><rect x="108" y="0" width="7" height="7" rx="1.5" fill="#161b22" opacity="0.9"><title>2026-01-19: 0 contributions</title></rect><rect x="108" y="9" width="7" height="7" rx="1.5" fill="#161b22" opacity="0.9"><title>2026-01-20: 0 contributions</title></rect><rect x="108" y="18" width="7" height="7" rx="1.5" fill="#161b22" opacity="0.9"><title>2026-01-21: 0 contributions</title></rect><rect x="108" y="27" width="7" height="7" rx="1.5" fill="#161b22" opacity="0.9"><title>2026-01-22: 0 contributions</title></rect><rect x="108" y="36" width="7" height="7" rx="1.5" fill="#161b22" opacity="0.9"><title>2026-01-23: 0 contributions</title></rect><rect x="108" y="45" width="7" height="7" rx="1.5" fill="#161b22" opacity="0.9"><title>2026-01-24: 0 contributions</title></rect><rect x="108" y="54" width="7" height="7" rx="1.5" fill="#161b22" opacity="0.9"><title>2026-01-25: 0 contributions</title></rect><rect x="117" y="0" width="7" height="7" rx="1.5" fill="#161b22" opacity="0.9"><title>2026-01-26: 0 contributions</title></rect><rect x="117" y="9" width="7" height="7" rx="1.5" fill="#161b22" opacity="0.9"><title>2026-01-27: 0 contributions</title></rect><rect x="117" y="18" width="7" height="7" rx="1.5" fill="#161b22" opacity="0.9"><title>2026-01-28: 0 contributions</title></rect><rect x="117" y="27" width="7" height="7" rx="1.5" fill="#161b22" opacity="0.9"><title>2026-01-29: 0 contributions</title></rect><rect x="117" y="36" width="7" height="7" rx="1.5" fill="#161b22" opacity="0.9"><title>2026-01-30: 0 contributions</title></rect><rect x="117" y="45" width="7" height="7" rx="1.5" fill="#161b22" opacity="0.9"><title>2026-01-31: 0 contributions</title></rect><rect x="117" y="54" width="7" height="7" rx="1.5" fill="#161b22" opacity="0.9"><title>2026-02-01: 0 contributions</title></rect><rect x="126" y="0" width="7" height="7" rx="1.5" fill="#161b22" opacity="0.9"><title>2026-02-02: 0 contributions</title></rect><rect x="126" y="9" width="7" height="7" rx="1.5" fill="#161b22" opacity="0.9"><title>2026-02-03: 0 contributions</title></rect><rect x="126" y="18" width="7" height="7" rx="1.5" fill="#161b22" opacity="0.9"><title>2026-02-04: 0 contributions</title></rect><rect x="126" y="27" width="7" height="7" rx="1.5" fill="#161b22" opacity="0.9"><title>2026-02-05: 0 contributions</title></rect><rect x="126" y="36" width="7" height="7" rx="1.5" fill="#161b22" opacity="0.9"><title>2026-02-06: 0 contributions</title></rect><rect x="126" y="45" width="7" height="7" rx="1.5" fill="#161b22" opacity="0.9"><title>2026-02-07: 0 contributions</title></rect><rect x="126" y="54" width="7" height="7" rx="1.5" fill="#161b22" opacity="0.9"><title>2026-02-08: 0 contributions</title></rect><rect x="135" y="0" width="7" height="7" rx="1.5" fill="#161b22" opacity="0.9"><title>2026-02-09: 0 contributions</title></rect><rect x="135" y="9" width="7" height="7" rx="1.5" fill="#161b22" opacity="0.9"><title>2026-02-10: 0 contributions</title></rect><rect x="135" y="18" width="7" height="7" rx="1.5" fill="#161b22" opacity="0.9"><title>2026-02-11: 0 contributions</title></rect><rect x="135" y="27" width="7" height="7" rx="1.5" fill="#161b22" opacity="0.9"><title>2026-02-12: 0 contributions</title></rect><rect x="135" y="36" width="7" height="7" rx="1.5" fill="#161b22" opacity="0.9"><title>2026-02-13: 0 contributions</title></rect><rect x="135" y="45" width="7" height="7" rx="1.5" fill="#161b22" opacity="0.9"><title>2026-02-14: 0 contributions</title></rect><rect x="135" y="54" width="7" height="7" rx="1.5" fill="#161b22" opacity="0.9"><title>2026-02-15: 0 contributions</title></rect><rect x="144" y="0" width="7" height="7" rx="1.5" fill="#161b22" opacity="0.9"><title>2026-02-16: 0 contributions</title></rect><rect x="144" y="9" width="7" height="7" rx="1.5" fill="#161b22" opacity="0.9"><title>2026-02-17: 0 contributions</title></rect><rect x="144" y="18" width="7" height="7" rx="1.5" fill="#161b22" opacity="0.9"><title>2026-02-18: 0 contributions</title></rect><rect x="144" y="27" width="7" height="7" rx="1.5" fill="#161b22" opacity="0.9"><title>2026-02-19: 0 contributions</title></rect><rect x="144" y="36" width="7" height="7" rx="1.5" fill="#161b22" opacity="0.9"><title>2026-02-20: 0 contributions</title></rect><rect x="144" y="45" width="7" height="7" rx="1.5" fill="#161b22" opacity="0.9"><title>2026-02-21: 0 contributions</title></rect><rect x="144" y="54" width="7" height="7" rx="1.5" fill="#161b22" opacity="0.9"><title>2026-02-22: 0 contributions</title></rect><rect x="153" y="0" width="7" height="7" rx="1.5" fill="#161b22" opacity="0.9"><title>2026-02-23: 0 contributions</title></rect><rect x="153" y="9" width="7" height="7" rx="1.5" fill="#161b22" opacity="0.9"><title>2026-02-24: 0 contributions</title></rect><rect x="153" y="18" width="7" height="7" rx="1.5" fill="#161b22" opacity="0.9"><title>2026-02-25: 0 contributions</title></rect><rect x="153" y="27" width="7" height="7" rx="1.5" fill="#161b22" opacity="0.9"><title>2026-02-26: 0 contributions</title></rect><rect x="153" y="36" width="7" height="7" rx="1.5" fill="#161b22" opacity="0.9"><title>2026-02-27: 0 contributions</title></rect><rect x="153" y="45" width="7" height="7" rx="1.5" fill="#161b22" opacity="0.9"><title>2026-02-28: 0 contributions</title></rect><rect x="153" y="54" width="7" height="7" rx="1.5" fill="#161b22" opacity="0.9"><title>2026-03-01: 0 contributions</title></rect><rect x="162" y="0" width="7" height="7" rx="1.5" fill="#161b22" opacity="0.9"><title>2026-03-02: 0 contributions</title></rect><rect x="162" y="9" width="7" height="7" rx="1.5" fill="#161b22" opacity="0.9"><title>2026-03-03: 0 contributions</title></rect><rect x="162" y="18" width="7" height="7" rx="1.5" fill="#161b22" opacity="0.9"><title>2026-03-04: 0 contributions</title></rect><rect x="162" y="27" width="7" height="7" rx="1.5" fill="#161b22" opacity="0.9"><title>2026-03-05: 0 contributions</title></rect><rect x="162" y="36" width="7" height="7" rx="1.5" fill="#161b22" opacity="0.9"><title>2026-03-06: 0 contributions</title></rect><rect x="162" y="45" width="7" height="7" rx="1.5" fill="#161b22" opacity="0.9"><title>2026-03-07: 0 contributions</title></rect><rect x="162" y="54" width="7" height="7" rx="1.5" fill="#161b22" opacity="0.9"><title>2026-03-08: 0 contributions</title></rect><rect x="171" y="0" width="7" height="7" rx="1.5" fill="#161b22" opacity="0.9"><title>2026-03-09: 0 contributions</title></rect><rect x="171" y="9" width="7" height="7" rx="1.5" fill="#161b22" opacity="0.9"><title>2026-03-10: 0 contributions</title></rect><rect x="171" y="18" width="7" height="7" rx="1.5" fill="#161b22" opacity="0.9"><title>2026-03-11: 0 contributions</title></rect><rect x="171" y="27" width="7" height="7" rx="1.5" fill="#161b22" opacity="0.9"><title>2026-03-12: 0 contributions</title></rect><rect x="171" y="36" width="7" height="7" rx="1.5" fill="#161b22" opacity="0.9"><title>2026-03-13: 0 contributions</title></rect><rect x="171" y="45" width="7" height="7" rx="1.5" fill="#161b22" opacity="0.9"><title>2026-03-14: 0 contributions</title></rect><rect x="171" y="54" width="7" height="7" rx="1.5" fill="#161b22" opacity="0.9"><title>2026-03-15: 0 contributions</title></rect><rect x="180" y="0" width="7" height="7" rx="1.5" fill="#006d32" opacity="0.9"><title>2026-03-16: 26 contributions</title></rect><rect x="180" y="9" width="7" height="7" rx="1.5" fill="#161b22" opacity="0.9"><title>2026-03-17: 0 contributions</title></rect><rect x="180" y="18" width="7" height="7" rx="1.5" fill="#161b22" opacity="0.9"><title>2026-03-18: 0 contributions</title></rect><rect x="180" y="27" width="7" height="7" rx="1.5" fill="#161b22" opacity="0.9"><title>2026-03-19: 0 contributions</title></rect><rect x="180" y="36" width="7" height="7" rx="1.5" fill="#26a641" opacity="0.9"><title>2026-03-20: 49 contributions</title></rect><rect x="180" y="45" width="7" height="7" rx="1.5" fill="#161b22" opacity="0.9"><title>2026-03-21: 0 contributions</title></rect><rect x="180" y="54" width="7" height="7" rx="1.5" fill="#161b22" opacity="0.9"><title>2026-03-22: 0 contributions</title></rect><rect x="189" y="0" width="7" height="7" rx="1.5" fill="#161b22" opacity="0.9"><title>2026-03-23: 0 contributions</title></rect><rect x="189" y="9" width="7" height="7" rx="1.5" fill="#161b22" opacity="0.9"><title>2026-03-24: 0 contributions</title></rect><rect x="189" y="18" width="7" height="7" rx="1.5" fill="#0e4429" opacity="0.9"><title>2026-03-25: 1 contributions</title></rect><rect x="189" y="27" width="7" height="7" rx="1.5" fill="#0e4429" opacity="0.9"><title>2026-03-26: 1 contributions</title></rect><rect x="189" y="36" width="7" height="7" rx="1.5" fill="#161b22" opacity="0.9"><title>2026-03-27: 0 contributions</title></rect><rect x="189" y="45" width="7" height="7" rx="1.5" fill="#161b22" opacity="0.9"><title>2026-03-28: 0 contributions</title></rect><rect x="189" y="54" width="7" height="7" rx="1.5" fill="#161b22" opacity="0.9"><title>2026-03-29: 0 contributions</title></rect><rect x="198" y="0" width="7" height="7" rx="1.5" fill="#161b22" opacity="0.9"><title>2026-03-30: 0 contributions</title></rect><rect x="198" y="9" width="7" height="7" rx="1.5" fill="#161b22" opacity="0.9"><title>2026-03-31: 0 contributions</title></rect><rect x="198" y="18" width="7" height="7" rx="1.5" fill="#161b22" opacity="0.9"><title>2026-04-01: 0 contributions</title></rect><rect x="198" y="27" width="7" height="7" rx="1.5" fill="#161b22" opacity="0.9"><title>2026-04-02: 0 contributions</title></rect><rect x="198" y="36" width="7" height="7" rx="1.5" fill="#161b22" opacity="0.9"><title>2026-04-03: 0 contributions</title></rect><rect x="198" y="45" width="7" height="7" rx="1.5" fill="#161b22" opacity="0.9"><title>2026-04-04: 0 contributions</title></rect><rect x="198" y="54" width="7" height="7" rx="1.5" fill="#161b22" opacity="0.9"><title>2026-04-05: 0 contributions</title></rect><rect x="207" y="0" width="7" height="7" rx="1.5" fill="#161b22" opacity="0.9"><title>2026-04-06: 0 contributions</title></rect><rect x="207" y="9" width="7" height="7" rx="1.5" fill="#161b22" opacity="0.9"><title>2026-04-07: 0 contributions</title></rect><rect x="207" y="18" width="7" height="7" rx="1.5" fill="#39d353" opacity="0.9"><title>2026-04-08: 74 contributions</title></rect><rect x="207" y="27" width="7" height="7" rx="1.5" fill="#161b22" opacity="0.9"><title>2026-04-09: 0 contributions</title></rect><rect x="207" y="36" width="7" height="7" rx="1.5" fill="#161b22" opacity="0.9"><title>2026-04-10: 0 contributions</title></rect><rect x="207" y="45" width="7" height="7" rx="1.5" fill="#161b22" opacity="0.9"><title>2026-04-11: 0 contributions</title></rect><rect x="207" y="54" width="7" height="7" rx="1.5" fill="#161b22" opacity="0.9"><title>2026-04-12: 0 contributions</title></rect><rect x="216" y="0" width="7" height="7" rx="1.5" fill="#161b22" opacity="0.9"><title>2026-04-13: 0 contributions</title></rect><rect x="216" y="9" width="7" height="7" rx="1.5" fill="#161b22" opacity="0.9"><title>2026-04-14: 0 contributions</title></rect><rect x="216" y="18" width="7" height="7" rx="1.5" fill="#161b22" opacity="0.9"><title>2026-04-15: 0 contributions</title></rect><rect x="216" y="27" width="7" height="7" rx="1.5" fill="#161b22" opacity="0.9"><title>2026-04-16: 0 contributions</title></rect><rect x="216" y="36" width="7" height="7" rx="1.5" fill="#161b22" opacity="0.9"><title>2026-04-17: 0 contributions</title></rect><rect x="216" y="45" width="7" height="7" rx="1.5" fill="#161b22" opacity="0.9"><title>2026-04-18: 0 contributions</title></rect><rect x="216" y="54" width="7" height="7" rx="1.5" fill="#161b22" opacity="0.9"><title>2026-04-19: 0 contributions</title></rect><rect x="225" y="0" width="7" height="7" rx="1.5" fill="#161b22" opacity="0.9"><title>2026-04-20: 0 contributions</title></rect><rect x="225" y="9" width="7" height="7" rx="1.5" fill="#161b22" opacity="0.9"><title>2026-04-21: 0 contributions</title></rect><rect x="225" y="18" width="7" height="7" rx="1.5" fill="#161b22" opacity="0.9"><title>2026-04-22: 0 contributions</title></rect><rect x="225" y="27" width="7" height="7" rx="1.5" fill="#161b22" opacity="0.9"><title>2026-04-23: 0 contributions</title></rect><rect x="225" y="36" width="7" height="7" rx="1.5" fill="#161b22" opacity="0.9"><title>2026-04-24: 0 contributions</title></rect><rect x="225" y="45" width="7" height="7" rx="1.5" fill="#161b22" opacity="0.9"><title>2026-04-25: 0 contributions</title></rect><rect x="225" y="54" width="7" height="7" rx="1.5" fill="#161b22" opacity="0.9"><title>2026-04-26: 0 contributions</title></rect></g>
  </g>

  <!-- Updated timestamp -->
  <text x="456" y="287" font-size="9"
        font-family="'Segoe UI',system-ui,sans-serif"
        fill="#8b949e" text-anchor="end" opacity="0.6">
    auto-generated 2026-04-26 02:31 UTC
  </text>
</svg>